<mxfile host="app.diagrams.net" modified="2023-10-29T20:58:37.488Z" agent="Mozilla/5.0 (Windows NT 10.0; Win64; x64) AppleWebKit/537.36 (KHTML, like Gecko) Chrome/116.0.5845.931 YaBrowser/23.9.3.931 Yowser/2.5 Safari/537.36" etag="-srilB_tT9pKjdSTBSlx" version="22.0.8" type="github">
  <diagram id="C5RBs43oDa-KdzZeNtuy" name="Page-1">
    <mxGraphModel dx="1904" dy="807" grid="1" gridSize="10" guides="1" tooltips="1" connect="1" arrows="1" fold="1" page="1" pageScale="1" pageWidth="827" pageHeight="1169" math="0" shadow="0">
      <root>
        <mxCell id="WIyWlLk6GJQsqaUBKTNV-0" />
        <mxCell id="WIyWlLk6GJQsqaUBKTNV-1" parent="WIyWlLk6GJQsqaUBKTNV-0" />
        <mxCell id="u6KvAwg-o0G-KrEHgGYY-6" style="edgeStyle=orthogonalEdgeStyle;rounded=0;orthogonalLoop=1;jettySize=auto;html=1;entryX=0.5;entryY=0;entryDx=0;entryDy=0;" edge="1" parent="WIyWlLk6GJQsqaUBKTNV-1" source="u6KvAwg-o0G-KrEHgGYY-0" target="u6KvAwg-o0G-KrEHgGYY-2">
          <mxGeometry relative="1" as="geometry" />
        </mxCell>
        <mxCell id="u6KvAwg-o0G-KrEHgGYY-0" value="Start" style="ellipse;whiteSpace=wrap;html=1;" vertex="1" parent="WIyWlLk6GJQsqaUBKTNV-1">
          <mxGeometry x="354" y="30" width="120" height="80" as="geometry" />
        </mxCell>
        <mxCell id="u6KvAwg-o0G-KrEHgGYY-1" value="Finish" style="ellipse;whiteSpace=wrap;html=1;" vertex="1" parent="WIyWlLk6GJQsqaUBKTNV-1">
          <mxGeometry x="354" y="725" width="120" height="80" as="geometry" />
        </mxCell>
        <mxCell id="u6KvAwg-o0G-KrEHgGYY-7" style="edgeStyle=orthogonalEdgeStyle;rounded=0;orthogonalLoop=1;jettySize=auto;html=1;entryX=0.5;entryY=0;entryDx=0;entryDy=0;" edge="1" parent="WIyWlLk6GJQsqaUBKTNV-1" source="u6KvAwg-o0G-KrEHgGYY-2" target="u6KvAwg-o0G-KrEHgGYY-3">
          <mxGeometry relative="1" as="geometry" />
        </mxCell>
        <mxCell id="u6KvAwg-o0G-KrEHgGYY-2" value="numbers = [1, 8, 3, 8, 2, 6, 8, 8]&lt;br&gt;index = 0&lt;br&gt;maximum = numbers[index]&lt;br&gt;count_maximal = 0" style="rounded=0;whiteSpace=wrap;html=1;" vertex="1" parent="WIyWlLk6GJQsqaUBKTNV-1">
          <mxGeometry x="291" y="170" width="246" height="80" as="geometry" />
        </mxCell>
        <mxCell id="u6KvAwg-o0G-KrEHgGYY-8" style="edgeStyle=orthogonalEdgeStyle;rounded=0;orthogonalLoop=1;jettySize=auto;html=1;entryX=0;entryY=0.5;entryDx=0;entryDy=0;" edge="1" parent="WIyWlLk6GJQsqaUBKTNV-1" source="u6KvAwg-o0G-KrEHgGYY-3" target="u6KvAwg-o0G-KrEHgGYY-5">
          <mxGeometry relative="1" as="geometry" />
        </mxCell>
        <mxCell id="u6KvAwg-o0G-KrEHgGYY-9" value="yes" style="edgeLabel;html=1;align=center;verticalAlign=middle;resizable=0;points=[];" vertex="1" connectable="0" parent="u6KvAwg-o0G-KrEHgGYY-8">
          <mxGeometry x="-0.0566" y="-1" relative="1" as="geometry">
            <mxPoint as="offset" />
          </mxGeometry>
        </mxCell>
        <mxCell id="u6KvAwg-o0G-KrEHgGYY-24" style="edgeStyle=orthogonalEdgeStyle;rounded=0;orthogonalLoop=1;jettySize=auto;html=1;entryX=0.5;entryY=0;entryDx=0;entryDy=0;exitX=0;exitY=0.5;exitDx=0;exitDy=0;" edge="1" parent="WIyWlLk6GJQsqaUBKTNV-1" source="u6KvAwg-o0G-KrEHgGYY-3" target="u6KvAwg-o0G-KrEHgGYY-20">
          <mxGeometry relative="1" as="geometry">
            <Array as="points">
              <mxPoint x="210" y="335" />
              <mxPoint x="210" y="600" />
              <mxPoint x="414" y="600" />
            </Array>
          </mxGeometry>
        </mxCell>
        <mxCell id="u6KvAwg-o0G-KrEHgGYY-25" value="no" style="edgeLabel;html=1;align=center;verticalAlign=middle;resizable=0;points=[];" vertex="1" connectable="0" parent="u6KvAwg-o0G-KrEHgGYY-24">
          <mxGeometry x="-0.7946" y="-1" relative="1" as="geometry">
            <mxPoint as="offset" />
          </mxGeometry>
        </mxCell>
        <mxCell id="u6KvAwg-o0G-KrEHgGYY-3" value="index &amp;lt; numbers.length" style="rhombus;whiteSpace=wrap;html=1;" vertex="1" parent="WIyWlLk6GJQsqaUBKTNV-1">
          <mxGeometry x="311" y="290" width="206" height="90" as="geometry" />
        </mxCell>
        <mxCell id="u6KvAwg-o0G-KrEHgGYY-11" style="edgeStyle=orthogonalEdgeStyle;rounded=0;orthogonalLoop=1;jettySize=auto;html=1;entryX=0;entryY=0.5;entryDx=0;entryDy=0;" edge="1" parent="WIyWlLk6GJQsqaUBKTNV-1" source="u6KvAwg-o0G-KrEHgGYY-5" target="u6KvAwg-o0G-KrEHgGYY-10">
          <mxGeometry relative="1" as="geometry" />
        </mxCell>
        <mxCell id="u6KvAwg-o0G-KrEHgGYY-12" value="yes" style="edgeLabel;html=1;align=center;verticalAlign=middle;resizable=0;points=[];" vertex="1" connectable="0" parent="u6KvAwg-o0G-KrEHgGYY-11">
          <mxGeometry x="-0.4091" y="1" relative="1" as="geometry">
            <mxPoint as="offset" />
          </mxGeometry>
        </mxCell>
        <mxCell id="u6KvAwg-o0G-KrEHgGYY-15" style="edgeStyle=orthogonalEdgeStyle;rounded=0;orthogonalLoop=1;jettySize=auto;html=1;entryX=0.5;entryY=0;entryDx=0;entryDy=0;" edge="1" parent="WIyWlLk6GJQsqaUBKTNV-1" source="u6KvAwg-o0G-KrEHgGYY-5" target="u6KvAwg-o0G-KrEHgGYY-13">
          <mxGeometry relative="1" as="geometry" />
        </mxCell>
        <mxCell id="u6KvAwg-o0G-KrEHgGYY-16" value="no" style="edgeLabel;html=1;align=center;verticalAlign=middle;resizable=0;points=[];" vertex="1" connectable="0" parent="u6KvAwg-o0G-KrEHgGYY-15">
          <mxGeometry x="-0.16" relative="1" as="geometry">
            <mxPoint as="offset" />
          </mxGeometry>
        </mxCell>
        <mxCell id="u6KvAwg-o0G-KrEHgGYY-5" value="numbers[index] &amp;gt; maximum" style="rhombus;whiteSpace=wrap;html=1;" vertex="1" parent="WIyWlLk6GJQsqaUBKTNV-1">
          <mxGeometry x="570" y="290" width="206" height="90" as="geometry" />
        </mxCell>
        <mxCell id="u6KvAwg-o0G-KrEHgGYY-27" style="edgeStyle=orthogonalEdgeStyle;rounded=0;orthogonalLoop=1;jettySize=auto;html=1;entryX=0.5;entryY=1;entryDx=0;entryDy=0;" edge="1" parent="WIyWlLk6GJQsqaUBKTNV-1" source="u6KvAwg-o0G-KrEHgGYY-10" target="u6KvAwg-o0G-KrEHgGYY-26">
          <mxGeometry relative="1" as="geometry">
            <Array as="points">
              <mxPoint x="1220" y="335" />
              <mxPoint x="1220" y="580" />
              <mxPoint x="414" y="580" />
            </Array>
          </mxGeometry>
        </mxCell>
        <mxCell id="u6KvAwg-o0G-KrEHgGYY-10" value="maximum = numbers[index]&lt;br&gt;count_maximal = 1" style="rounded=0;whiteSpace=wrap;html=1;" vertex="1" parent="WIyWlLk6GJQsqaUBKTNV-1">
          <mxGeometry x="820" y="305" width="210" height="60" as="geometry" />
        </mxCell>
        <mxCell id="u6KvAwg-o0G-KrEHgGYY-17" style="edgeStyle=orthogonalEdgeStyle;rounded=0;orthogonalLoop=1;jettySize=auto;html=1;entryX=0;entryY=0.5;entryDx=0;entryDy=0;" edge="1" parent="WIyWlLk6GJQsqaUBKTNV-1" source="u6KvAwg-o0G-KrEHgGYY-13" target="u6KvAwg-o0G-KrEHgGYY-14">
          <mxGeometry relative="1" as="geometry" />
        </mxCell>
        <mxCell id="u6KvAwg-o0G-KrEHgGYY-18" value="yes" style="edgeLabel;html=1;align=center;verticalAlign=middle;resizable=0;points=[];" vertex="1" connectable="0" parent="u6KvAwg-o0G-KrEHgGYY-17">
          <mxGeometry x="-0.4091" y="4" relative="1" as="geometry">
            <mxPoint as="offset" />
          </mxGeometry>
        </mxCell>
        <mxCell id="u6KvAwg-o0G-KrEHgGYY-29" style="edgeStyle=orthogonalEdgeStyle;rounded=0;orthogonalLoop=1;jettySize=auto;html=1;entryX=0.5;entryY=1;entryDx=0;entryDy=0;exitX=0.5;exitY=1;exitDx=0;exitDy=0;" edge="1" parent="WIyWlLk6GJQsqaUBKTNV-1" source="u6KvAwg-o0G-KrEHgGYY-13" target="u6KvAwg-o0G-KrEHgGYY-26">
          <mxGeometry relative="1" as="geometry" />
        </mxCell>
        <mxCell id="u6KvAwg-o0G-KrEHgGYY-30" value="no" style="edgeLabel;html=1;align=center;verticalAlign=middle;resizable=0;points=[];" vertex="1" connectable="0" parent="u6KvAwg-o0G-KrEHgGYY-29">
          <mxGeometry x="-0.9299" y="-1" relative="1" as="geometry">
            <mxPoint as="offset" />
          </mxGeometry>
        </mxCell>
        <mxCell id="u6KvAwg-o0G-KrEHgGYY-13" value="numbers[index] == maximum" style="rhombus;whiteSpace=wrap;html=1;" vertex="1" parent="WIyWlLk6GJQsqaUBKTNV-1">
          <mxGeometry x="570" y="430" width="206" height="90" as="geometry" />
        </mxCell>
        <mxCell id="u6KvAwg-o0G-KrEHgGYY-28" style="edgeStyle=orthogonalEdgeStyle;rounded=0;orthogonalLoop=1;jettySize=auto;html=1;entryX=0.5;entryY=1;entryDx=0;entryDy=0;exitX=1;exitY=0.5;exitDx=0;exitDy=0;" edge="1" parent="WIyWlLk6GJQsqaUBKTNV-1" source="u6KvAwg-o0G-KrEHgGYY-14" target="u6KvAwg-o0G-KrEHgGYY-26">
          <mxGeometry relative="1" as="geometry">
            <Array as="points">
              <mxPoint x="1050" y="475" />
              <mxPoint x="1050" y="560" />
              <mxPoint x="414" y="560" />
            </Array>
          </mxGeometry>
        </mxCell>
        <mxCell id="u6KvAwg-o0G-KrEHgGYY-14" value="count_maximal = count_maximal&amp;nbsp;+ 1" style="rounded=0;whiteSpace=wrap;html=1;" vertex="1" parent="WIyWlLk6GJQsqaUBKTNV-1">
          <mxGeometry x="820" y="445" width="210" height="60" as="geometry" />
        </mxCell>
        <mxCell id="u6KvAwg-o0G-KrEHgGYY-22" style="edgeStyle=orthogonalEdgeStyle;rounded=0;orthogonalLoop=1;jettySize=auto;html=1;entryX=0.5;entryY=0;entryDx=0;entryDy=0;" edge="1" parent="WIyWlLk6GJQsqaUBKTNV-1" source="u6KvAwg-o0G-KrEHgGYY-20" target="u6KvAwg-o0G-KrEHgGYY-1">
          <mxGeometry relative="1" as="geometry" />
        </mxCell>
        <mxCell id="u6KvAwg-o0G-KrEHgGYY-20" value="print(count_maximal)" style="shape=document;whiteSpace=wrap;html=1;boundedLbl=1;" vertex="1" parent="WIyWlLk6GJQsqaUBKTNV-1">
          <mxGeometry x="354" y="620" width="120" height="80" as="geometry" />
        </mxCell>
        <mxCell id="u6KvAwg-o0G-KrEHgGYY-31" style="edgeStyle=orthogonalEdgeStyle;rounded=0;orthogonalLoop=1;jettySize=auto;html=1;entryX=0.5;entryY=1;entryDx=0;entryDy=0;" edge="1" parent="WIyWlLk6GJQsqaUBKTNV-1" source="u6KvAwg-o0G-KrEHgGYY-26" target="u6KvAwg-o0G-KrEHgGYY-3">
          <mxGeometry relative="1" as="geometry" />
        </mxCell>
        <mxCell id="u6KvAwg-o0G-KrEHgGYY-26" value="index = index + 1" style="rounded=0;whiteSpace=wrap;html=1;" vertex="1" parent="WIyWlLk6GJQsqaUBKTNV-1">
          <mxGeometry x="354" y="445" width="120" height="60" as="geometry" />
        </mxCell>
      </root>
    </mxGraphModel>
  </diagram>
</mxfile>
